<?xml version="1.0" encoding="utf-8"?>
<!-- Generator: Adobe Illustrator 19.1.1, SVG Export Plug-In . SVG Version: 6.00 Build 0)  -->
<svg version="1.1" id="Слой_1" xmlns="http://www.w3.org/2000/svg" xmlns:xlink="http://www.w3.org/1999/xlink" x="0px" y="0px"
	 viewBox="-39 101 400 360" style="enable-background:new -39 101 400 360;" xml:space="preserve">
<style type="text/css">
	.st0{fill:none;stroke:#FFFFFF;stroke-width:4;stroke-linejoin:round;stroke-miterlimit:10;}
	.st1{fill:none;stroke:#FFFFFF;stroke-width:4;stroke-linecap:round;stroke-linejoin:round;stroke-miterlimit:10;}
	.st2{fill:none;stroke:#FFFFFF;stroke-width:4;stroke-miterlimit:10;}
</style>
<g>
	<g>
		<g>
			<polygon class="st0" points="134,421.2 134,434.4 356.5,351.7 356.5,339.7 			"/>
			<polygon class="st0" points="133.7,421.2 47.4,328.2 247.5,271.8 356.5,339.7 			"/>
			<polygon class="st0" points="134,434.4 47.6,340.4 47.6,328.2 134,421.2 			"/>
			<polygon class="st0" points="231.9,135.2 24.2,170.8 44.6,322.5 245.1,265.4 			"/>
			<polyline class="st0" points="24.2,170.8 19.7,172 39.3,318.9 44.6,322.5 			"/>
			<polygon class="st0" points="160.2,356.5 288.6,313.2 245.1,284.6 120.2,322.5 			"/>
			<polygon class="st0" points="110.4,373.4 74.6,336.1 112.1,325.3 151,359.6 			"/>
			<polygon class="st0" points="213.4,379.4 191,357.9 238.3,341.3 263.5,361.5 			"/>
			<polygon class="st0" points="49.8,307.1 32.9,178 225.1,144.2 237.1,256.6 			"/>
		</g>
		<g>
			<line class="st1" x1="155.2" y1="222.8" x2="176.6" y2="188.6"/>
			<line class="st1" x1="149.2" y1="193" x2="182.4" y2="217.5"/>
			<line class="st1" x1="91.4" y1="235.1" x2="115.9" y2="198.4"/>
			<line class="st1" x1="84.9" y1="203.4" x2="122.2" y2="229.1"/>
			<line class="st1" x1="106.9" y1="262.1" x2="180.8" y2="244.8"/>
			<path class="st1" d="M146.4,252.8L146.4,252.8c9.3,14.9,26,10.8,28.4-6.6l0,0"/>
		</g>
	</g>
	<polyline class="st2" points="282,258.1 289.7,235.3 311.5,245.5 319.2,222.7 341.1,232.9 348.8,210 	"/>
	<polyline class="st2" points="41.2,441.9 40,429 52.8,430.2 51.6,417.3 64.5,418.6 63.2,405.7 	"/>
	<polyline class="st2" points="54.8,126.5 66,126.4 65.8,137.6 77,137.5 	"/>
	<polyline class="st2" points="-34.5,292.7 -23.1,306.7 -11.7,292.7 -0.3,306.7 11.1,292.7 	"/>
</g>
</svg>
