<?xml version="1.0" encoding="utf-8"?>
<!-- Generator: Adobe Illustrator 19.1.1, SVG Export Plug-In . SVG Version: 6.00 Build 0)  -->
<svg version="1.1" id="Слой_1" xmlns="http://www.w3.org/2000/svg" xmlns:xlink="http://www.w3.org/1999/xlink" x="0px" y="0px"
	 viewBox="0 0 100 100" style="enable-background:new 0 0 100 100;" xml:space="preserve">
<style type="text/css">
	.st0{fill:#FFFFFF;}
	.st1{fill-rule:evenodd;clip-rule:evenodd;fill:#68A56C;}
	.st2{fill-rule:evenodd;clip-rule:evenodd;fill:#F6D85B;}
	.st3{fill-rule:evenodd;clip-rule:evenodd;fill:#6C86C2;}
	.st4{fill-rule:evenodd;clip-rule:evenodd;fill:#FFFFFF;}
	.st5{fill-rule:evenodd;clip-rule:evenodd;fill:#BDBCBE;}
	.st6{fill:#EFEFF0;}
	.st7{fill:#C25E52;}
	.st8{fill:#643C35;}
</style>
<g>
	<circle class="st0" cx="50" cy="50" r="50"/>
	<g>
		<path class="st1" d="M23.2,71.9V25.7c0-2.7,2.2-4.9,4.9-4.9h46.2L23.2,71.9L23.2,71.9z"/>
		<path class="st2" d="M23.2,72.9v-1l51.1-51.1h1c2.7,0,4.9,2.2,4.9,4.9v1L29.1,77.7h-1C25.4,77.7,23.2,75.6,23.2,72.9L23.2,72.9z"
			/>
		<polygon class="st3" points="29.1,77.7 51.7,55.1 74.3,77.7 29.1,77.7 		"/>
		<path class="st4" d="M74.3,77.7l-23-23l5.8-5.8l23,23v1c0,2.7-2.2,4.9-4.9,4.9H74.3L74.3,77.7z"/>
		<polygon class="st5" points="80.1,71.9 57.5,49.3 80.1,26.7 80.1,71.9 		"/>
		<path class="st6" d="M33.4,27.1c2.9-1.3,6.5-0.8,8.9,1.4c-0.7,0.8-1.5,1.5-2.2,2.2c-2.4-2.3-6.8-1.2-7.9,1.9c-1.4,3,1,7,4.3,7.1
			c2.2,0.3,4.4-1.2,4.9-3.4c-1.5,0-3.1,0-4.6,0c0-1,0-1.9,0-2.9c2.6,0.1,5.2-0.1,7.8,0.1c0.2,1.9,0.1,3.9-1,5.6
			c-1.6,3-5.4,4.3-8.6,3.5c-3.9-0.8-6.9-4.9-6.4-8.9C28.9,30.8,30.8,28.3,33.4,27.1L33.4,27.1z"/>
		<path class="st7" d="M69.8,22.9c-2.2,0.5-4,2.4-4.2,4.7c-0.2,2.1,1,4.2,2.9,5.2c2,1.1,4.7,0.8,6.5-0.8c1.6-1.4,2.2-3.9,1.3-5.8
			C75.3,23.6,72.4,22.2,69.8,22.9L69.8,22.9z M70.2,12.8h1.9c4.6,0.3,9.1,2.5,11.9,6.2c1.8,2.3,2.9,5.2,3.1,8.2v1.1
			c-0.1,5.7-3.8,10.4-6.9,14.9c-3.6,5-6.8,10.5-7.8,16.7c-0.2,1.1,0,2.5-1.2,3c-0.3-0.2-0.6-0.4-0.8-0.7c-0.4-3.5-1.2-6.9-2.7-10.1
			c-1.7-3.7-4-7-6.4-10.3c-1.4-2-2.8-4-3.9-6.1c-1.8-3.2-2.4-7.1-1.7-10.7c0.6-2.9,2.1-5.5,4.2-7.6C62.5,14.7,66.3,13,70.2,12.8
			L70.2,12.8z"/>
		<path class="st8" d="M69.8,22.9c2.6-0.7,5.5,0.8,6.5,3.2c0.8,2,0.3,4.4-1.3,5.8c-1.7,1.6-4.4,1.9-6.5,0.8
			c-1.9-0.9-3.1-3.1-2.9-5.2C65.8,25.3,67.7,23.4,69.8,22.9L69.8,22.9z"/>
	</g>
</g>
<g>
</g>
<g>
</g>
<g>
</g>
<g>
</g>
<g>
</g>
<g>
</g>
<g>
</g>
<g>
</g>
<g>
</g>
<g>
</g>
<g>
</g>
<g>
</g>
<g>
</g>
<g>
</g>
<g>
</g>
</svg>
