<?xml version="1.0" encoding="utf-8"?>
<!-- Generator: Adobe Illustrator 19.1.1, SVG Export Plug-In . SVG Version: 6.00 Build 0)  -->
<svg version="1.1" id="Слой_1" xmlns="http://www.w3.org/2000/svg" xmlns:xlink="http://www.w3.org/1999/xlink" x="0px" y="0px"
	 viewBox="0 0 145 145" style="enable-background:new 0 0 145 145;" xml:space="preserve">
<style type="text/css">
	.st0{fill:#FFFFFF;}
	.st1{fill:none;stroke:#5ACCB6;stroke-width:4;stroke-linecap:round;stroke-miterlimit:10;}
</style>
<g>
	<circle class="st0" cx="73" cy="73" r="72.3"/>
	<g>
		<path class="st1" d="M99,106.3c0,0,15.4-6.4,15.4-30c0-17.3-21-34.4-40.2-34.4c-9,0-11.1,2.2-12.3,2.9c0,0-8.2-5.8-12.7-5.3
			S33.5,46.3,31.7,48l9.7,9l-3,5l-9.7,1.5c0,0-6,2.5-6,15.7s4.8,13.7,4.8,13.7s23.1,6.5,23.1,17.3c0,2,1.8,8.2,7.8,8.2
			s8-3.7,7.8-5.8c0,0,3.5,0.9,9,0.9s9.6-0.9,9.6-0.9s0.2,6,7,6s7.1-3.5,7.1-6.8C99,109.4,99,106.3,99,106.3z"/>
		<path class="st1" d="M109.4,61c0,0,8.8,1.8,12-6c3.1-7.6,0.3-10.1-2-10.8c-2.6-0.8-6.1,1.1-5.8,4.8c0.2,2.1,1.9,4.4,4.6,4.4
			s10.3-2.9,10-10.8"/>
		<circle class="st1" cx="97.9" cy="29.1" r="10.4"/>
		<path class="st1" d="M69.6,55.5c0,0,7.4-3.1,15,0.9"/>
		<ellipse class="st1" cx="49.9" cy="72.8" rx="3.8" ry="7.5"/>
	</g>
</g>
<g>
</g>
<g>
</g>
<g>
</g>
<g>
</g>
<g>
</g>
<g>
</g>
<g>
</g>
<g>
</g>
<g>
</g>
<g>
</g>
<g>
</g>
<g>
</g>
<g>
</g>
<g>
</g>
<g>
</g>
</svg>
