<?xml version="1.0" encoding="utf-8"?>
<!-- Generator: Adobe Illustrator 19.1.1, SVG Export Plug-In . SVG Version: 6.00 Build 0)  -->
<svg version="1.1" id="Слой_1" xmlns="http://www.w3.org/2000/svg" xmlns:xlink="http://www.w3.org/1999/xlink" x="0px" y="0px"
	 width="191px" height="145px" viewBox="-196 -22 191 145" style="enable-background:new -196 -22 191 145;" xml:space="preserve">
<style type="text/css">
	.st0{fill:#FFFFFF;}
	.st1{fill:none;stroke:#5ACCB6;stroke-width:4;stroke-linecap:round;stroke-miterlimit:10;}
	.st2{fill:none;stroke:#5ACCB6;stroke-width:4;stroke-linecap:round;stroke-linejoin:round;stroke-miterlimit:10;}
</style>
<g>
	<g>
		<circle class="st0" cx="-77" cy="51" r="72.3"/>
		<g>
			<g>
				<path class="st1" d="M-131,54.3c0,3.1-1.9,5.6-4.4,5.2c-6.7-1.1-41.6-5.1-41.6-5.1s32-3.6,41.1-5.1
					C-132.3,48.6-131,51.2-131,54.3z"/>
				<path class="st1" d="M-65,35.8c8.7,0.6,21.8,4.3,29.5,11.3"/>
			</g>
			<path class="st1" d="M-39.2,44.7c-8.7,4.4-19.8,4.4-25.8,3.6c-1.6-0.2-2-0.9-2.1-2.3c-0.2-3.2,0.9-6,2.7-8.5
				c1-1.4,0.9-1.5-0.6-1.7c-8.3-1-22.6,2.4-24.9,7.6c-3.7-15.3-20-19.4-20-19.4s8.4,14.5,4.5,20.2c-3.7,5.4-13-2.7-16.5-0.7
				c-4.3,2.5-3.2,19.3-0.1,22c1.1,1,14.2-2.1,16.3,0.7c2.2,2.9-4.2,8.5-4.2,8.5s7.2,4.2,17.3-7.5c0.5-0.6,1.5-0.8,2.3-0.6
				C-84.4,68-61,70.1-40.8,64 M-121.3,43.2c4.5,0.8,3.4,8.2,3.4,11.1s-0.6,10.6-4.1,11.1"/>
			<path class="st2" d="M-35.5,47.1c0.7,0.5,10.9,7.9,10.9,7.9c0.8,0.6,0.8,1.8,0,2.4c-2.4,1.8-10,4.9-16.3,6.7
				C-41.4,56.1-36.9,47.9-35.5,47.1z"/>
		</g>
	</g>
</g>
</svg>
