<?xml version="1.0" encoding="utf-8"?>
<!-- Generator: Adobe Illustrator 19.1.1, SVG Export Plug-In . SVG Version: 6.00 Build 0)  -->
<svg version="1.1" id="Слой_1" xmlns="http://www.w3.org/2000/svg" xmlns:xlink="http://www.w3.org/1999/xlink" x="0px" y="0px"
	 viewBox="0 0 145 145" style="enable-background:new 0 0 145 145;" xml:space="preserve">
<style type="text/css">
	.st0{fill:#FFFFFF;}
	.st1{fill:none;stroke:#5ACCB6;stroke-width:4;stroke-linecap:round;stroke-miterlimit:10;}
	.st2{fill:none;stroke:#5ACCB6;stroke-width:4;stroke-linecap:round;stroke-linejoin:round;stroke-miterlimit:10;}
</style>
<g>
	<circle class="st0" cx="73" cy="73" r="72.3"/>
	<g>
		<path class="st1" d="M42.7,62.1c0,0,16.2-29.7,51.6-15.8c9.7,3.8,18.8-4.9,18.8-4.9s5.5,4.6,10.5,16s4.4,18.4,4.4,18.4
			c-6.5,3-12.3,6.1-16.3,11c0,0-8.4-10.4-18.2-18.7c-9.1-7.7-24.1-13.3-33.7-5.7C59.8,62.3,46.8,72.6,42.7,62.1z"/>
		<path class="st2" d="M47.3,55.6L32.6,44.1C27.3,47.8,16.9,69.3,19,80.5L35.2,91c0,0,6.4-11,11.2-7.2c2.6,2-0.4,8.9-0.4,8.9
			s3.6-3.9,7-1.5c2.6,1.9,1.3,7.1,1.3,7.1s4.6-3.2,7.8-0.9c2.9,2.1,1,6.2,1,6.2s4-1.7,6.6,0.7c2.8,2.6,0.6,6.2-1,8.5"/>
		<path class="st2" d="M35.3,90.6c0,0-2.5,5.1,0.5,7.2s5.3,0.9,6.5-0.3c0,0-2.5,4.1,0.8,6.5c3.4,2.5,7-0.3,7.2-0.6
			c0,0-2.2,3.6,1.8,6.4s6.1-1.2,6.1-1.2s-0.8,5.2,3,6.8c3.7,1.5,7.4-1.8,8.2-3.4"/>
		<path class="st2" d="M70.3,110.8c0,0,2.5,2.8,5.7,2.9s4.8-1.8,4.6-4.9c0,0,5.6,2.5,8,1.1c2.5-1.4,3.1-4.8,2.3-7.2c0,0,5,3,7.1,0.1
			s0.4-9.3,0.4-9.3c2.9,3,15.8,4.5,13.2-6.7"/>
	</g>
</g>
<g>
</g>
<g>
</g>
<g>
</g>
<g>
</g>
<g>
</g>
<g>
</g>
<g>
</g>
<g>
</g>
<g>
</g>
<g>
</g>
<g>
</g>
<g>
</g>
<g>
</g>
<g>
</g>
<g>
</g>
</svg>
