<?xml version="1.0" encoding="utf-8"?>
<!-- Generator: Adobe Illustrator 19.1.1, SVG Export Plug-In . SVG Version: 6.00 Build 0)  -->
<svg version="1.1" id="Слой_1" xmlns="http://www.w3.org/2000/svg" xmlns:xlink="http://www.w3.org/1999/xlink" x="0px" y="0px"
	 viewBox="0 0 145 145" style="enable-background:new 0 0 145 145;" xml:space="preserve">
<style type="text/css">
	.st0{fill:#FFFFFF;}
	.st1{fill:none;stroke:#5ACCB6;stroke-width:4;stroke-linecap:round;stroke-miterlimit:10;}
</style>
<g>
	<circle class="st0" cx="73" cy="73" r="72.3"/>
	<g>
		<path class="st1" d="M70.5,49.2c-3.2-10.3-6.1-21.2,1.3-30.1c7.7-9.2,17.4-6.6,14.4,6.5c-3,12.8-4.5,25.5,3.9,34
			c8,8.1,11.3,14.9,9.2,30.1s-4.2,26.1-14.4,30.1c-10.2,4.1-12.5,1.3-13.1,1.3c-0.6,0-17.3,5.2-23.6-1.3
			c-5.5-5.8-10.2-16.6-9.2-24.9c0,0-4.2-7.8-2.6-13.1s2.6-6.5,2.6-6.5s-3-6.6,0-11.8s5.1-7.5,19.6-7.9
			C69.1,55.5,71.5,52.3,70.5,49.2z"/>
		<path class="st1" d="M92.8,113.3c2.3,3.1,19.8,5.1,20.9-19.6c1-21.8-11.2-23.4-15.7-22.3"/>
		<path class="st1" d="M39.1,95c0,0,11.1,17.4,20.9,15.7c9.8-1.7,17.7-5.8,20.9-11.8s-0.3-13-1.3-11.8c-1,1.2-11.4,8.4-14.4,7.9
			c-8.6-1.7-25.1-17-26.2-18.3C38.1,75.3,32.9,84,39.1,95z"/>
		<path class="st1" d="M58.7,64.9c0,0,0.5-0.9,7.9,3.9c2.8,1.9,5.7-0.3,9.2,1.3c2.4,1.1,8.9,4.7,5.2,15.7l-1.3,1.3"/>
		<path class="st1" d="M95.4,92.4c-3.3,3-10.2,4.3-13.1,0"/>
		<path class="st1" d="M71.8,121.2c0,0,15.5-4.4,13.1-15.7c-1.8-8.6-3.9-6.5-3.9-6.5"/>
	</g>
</g>
<g>
</g>
<g>
</g>
<g>
</g>
<g>
</g>
<g>
</g>
<g>
</g>
<g>
</g>
<g>
</g>
<g>
</g>
<g>
</g>
<g>
</g>
<g>
</g>
<g>
</g>
<g>
</g>
<g>
</g>
</svg>
