<?xml version="1.0" encoding="utf-8"?>
<!-- Generator: Adobe Illustrator 19.1.1, SVG Export Plug-In . SVG Version: 6.00 Build 0)  -->
<svg version="1.1" id="Слой_1" xmlns="http://www.w3.org/2000/svg" xmlns:xlink="http://www.w3.org/1999/xlink" x="0px" y="0px"
	 viewBox="0 0 445 92" style="enable-background:new 0 0 445 92;" xml:space="preserve">
<style type="text/css">
	.st0{fill:#FFFFFF;}
	.st1{fill:none;stroke:#FDFFFF;stroke-miterlimit:10;}
</style>
<g>
	<path class="st0" d="M26.5,47.1l-2.7,0.4c-1,0.1-2,0.3-3,0.4c-1,0.1-1.9,0.2-2.6,0.2c-2.4,0-4.4-0.3-5.8-0.9
		c-1.5-0.6-2.6-1.3-3.3-2.3c-0.8-0.9-1.2-1.9-1.5-3.1c-0.2-1.1-0.3-2.3-0.3-3.4V28.2h3.2v9.9c0,0.7,0,1.5,0.2,2.3s0.4,1.6,0.9,2.3
		c0.5,0.7,1.2,1.3,2.2,1.8c0.9,0.5,2.3,0.8,4,0.8c1,0,2.1,0,3.2-0.2C22,45,23,44.8,24,44.7c1-0.1,1.8-0.3,2.6-0.4
		c0.8-0.1,1.4-0.3,1.8-0.4V28.2h3.2V62h-3.2V46.6C28,46.8,27.3,46.9,26.5,47.1z"/>
	<path class="st0" d="M41.7,31v12.2h18.8v2.7H41.7v13.3H62V62H38.5V28.2h23.3V31H41.7z"/>
	<path class="st0" d="M73.9,61.2c-2-0.9-3.7-2.2-5-3.8c-1.3-1.6-2.3-3.5-3-5.6c-0.7-2.1-1-4.4-1-6.7s0.3-4.5,1-6.7
		c0.7-2.1,1.7-4,3-5.6c1.3-1.6,3-2.9,5-3.9c2-0.9,4.3-1.4,7-1.4c1.6,0,3.2,0.2,4.7,0.7c1.5,0.5,2.9,1.2,4.2,2.1
		c1.2,0.9,2.3,2.1,3.1,3.5c0.8,1.4,1.3,2.9,1.6,4.7h-3.2c-0.3-1.3-0.8-2.5-1.4-3.5c-0.7-1-1.5-1.8-2.4-2.6c-0.9-0.7-2-1.2-3.1-1.6
		c-1.1-0.3-2.3-0.5-3.5-0.5c-2.2,0-4.2,0.4-5.8,1.3c-1.6,0.9-2.9,2-3.9,3.4c-1,1.4-1.8,3-2.3,4.8c-0.5,1.8-0.8,3.6-0.8,5.4
		c0,1.8,0.2,3.7,0.8,5.4c0.5,1.8,1.2,3.4,2.3,4.7c1,1.4,2.3,2.6,3.9,3.4c1.6,0.9,3.5,1.3,5.8,1.3c1.6,0,3-0.3,4.3-0.9
		c1.3-0.6,2.4-1.3,3.3-2.3c0.9-1,1.7-2.1,2.2-3.5c0.6-1.3,0.9-2.7,1.1-4.2h3.2c-0.2,2.1-0.7,4-1.5,5.6s-1.8,3.1-2.9,4.3
		c-1.2,1.2-2.6,2.1-4.2,2.7c-1.7,0.6-3.5,0.9-5.4,0.9C78.2,62.7,75.9,62.2,73.9,61.2z"/>
	<path class="st0" d="M123,28.2V31h-11.8v31H108V31H96.2v-2.7H123z"/>
	<path class="st0" d="M149.4,42.9V28.2h3.2V62h-3.2V45.6h-20.1V62h-3.2V28.2h3.2v14.7H149.4z"/>
	<path class="st0" d="M174.4,42.5c3.2,0,5.6,0.9,7.4,2.6c1.8,1.8,2.6,4.1,2.6,7.1s-0.9,5.4-2.6,7.1c-1.8,1.8-4.2,2.6-7.4,2.6h-15
		V28.2h3.2v14.3H174.4z M179.3,57.4c1.3-1.2,2-2.9,2-5.1s-0.7-3.9-2-5.2c-1.3-1.2-3.2-1.8-5.5-1.8h-11.1v14h11.1
		C176.1,59.3,177.9,58.6,179.3,57.4z M189.4,62V28.2h3.2V62H189.4z"/>
	<path class="st0" d="M222.1,28.2h4.2V62H223V31.7L203.6,62h-4.2V28.2h3.2v30.3L222.1,28.2z M207.9,23.8c-1.1-1-1.8-2.6-2-4.5h1.8
		c0.1,1.2,0.7,2.1,1.5,2.8c0.8,0.7,1.9,1,3.4,1c1.4,0,2.5-0.3,3.4-1c0.9-0.7,1.4-1.6,1.7-2.8h1.8c-0.3,2-1.1,3.5-2.2,4.5
		c-1.1,1.1-2.7,1.6-4.7,1.6C210.6,25.4,209,24.9,207.9,23.8z"/>
	<path class="st0" d="M265.3,28.8c1.2,0.4,2.3,1.1,3.2,1.9c0.9,0.9,1.6,1.9,2,3.1c0.5,1.2,0.7,2.6,0.7,4.1s-0.2,2.9-0.7,4.1
		c-0.5,1.2-1.1,2.2-2,3c-0.9,0.9-1.9,1.5-3.2,1.9c-1.2,0.4-2.6,0.7-4.1,0.7h-11.8V62h-3.2V28.2h15C262.7,28.2,264.1,28.4,265.3,28.8
		z M265.9,43.1c1.4-1.1,2.1-2.9,2.1-5.2s-0.7-4.1-2.1-5.2c-1.4-1.1-3.2-1.7-5.4-1.7h-11.1v13.8h11.1
		C262.7,44.8,264.6,44.2,265.9,43.1z"/>
	<path class="st0" d="M279.2,31v12.2H298v2.7h-18.8v13.3h20.3V62H276V28.2h23.3V31H279.2z"/>
	<path class="st0" d="M332,28.2h4.7V62h-3.2V32.8h-0.1L321.9,62h-3l-11.6-29.2h-0.1V62H304V28.2h4.7l11.7,29.6L332,28.2z"/>
	<path class="st0" d="M350.6,61.2c-2-0.9-3.7-2.2-5-3.8c-1.3-1.6-2.3-3.5-3-5.6c-0.7-2.1-1-4.4-1-6.7s0.3-4.5,1-6.7
		c0.7-2.1,1.7-4,3-5.6c1.3-1.6,3-2.9,5-3.9c2-0.9,4.3-1.4,7-1.4c2.6,0,5,0.5,7,1.4c2,1,3.6,2.3,5,3.9c1.3,1.7,2.3,3.5,3,5.6
		c0.7,2.1,1,4.4,1,6.7s-0.3,4.5-1,6.7c-0.7,2.1-1.7,4-3,5.6c-1.3,1.6-3,2.9-5,3.8c-2,1-4.3,1.5-7,1.5
		C354.9,62.7,352.6,62.2,350.6,61.2z M363.3,58.7c1.6-0.9,2.9-2,4-3.4c1-1.4,1.8-3,2.3-4.7c0.5-1.8,0.7-3.6,0.7-5.4
		c0-1.8-0.2-3.6-0.7-5.4c-0.5-1.8-1.3-3.4-2.3-4.8c-1-1.4-2.4-2.5-4-3.4c-1.6-0.9-3.5-1.3-5.7-1.3c-2.2,0-4.2,0.4-5.8,1.3
		c-1.6,0.9-2.9,2-3.9,3.4c-1,1.4-1.8,3-2.3,4.8c-0.5,1.8-0.8,3.6-0.8,5.4c0,1.8,0.2,3.7,0.8,5.4c0.5,1.8,1.2,3.4,2.3,4.7
		c1,1.4,2.3,2.6,3.9,3.4s3.5,1.3,5.8,1.3C359.8,60,361.7,59.5,363.3,58.7z"/>
	<path class="st0" d="M401.8,42.9V28.2h3.2V62h-3.2V45.6h-20.1V62h-3.2V28.2h3.2v14.7H401.8z"/>
	<path class="st0" d="M434.9,28.2V31h-11.8v31h-3.2V31h-11.7v-2.7H434.9z"/>
</g>
<g>
	<path class="st0" d="M153,85.9c0,0.4-0.1,0.7-0.2,1.1s-0.3,0.6-0.6,0.9c-0.3,0.3-0.7,0.5-1.1,0.7s-0.9,0.2-1.6,0.2h-1.2V92h-1.2
		v-8.7h2.4c0.5,0,1,0,1.3,0.1s0.7,0.2,1,0.4c0.3,0.2,0.6,0.5,0.8,0.8S153,85.4,153,85.9z M151.7,85.9c0-0.3-0.1-0.6-0.2-0.8
		s-0.3-0.4-0.5-0.5c-0.2-0.1-0.4-0.2-0.6-0.3s-0.5-0.1-0.9-0.1h-1.1v3.5h1c0.5,0,0.8,0,1.1-0.1s0.5-0.2,0.7-0.4
		c0.2-0.2,0.3-0.4,0.4-0.6S151.7,86.2,151.7,85.9z"/>
	<path class="st0" d="M161.4,92h-5.7v-8.7h5.7v1h-4.6v2.4h4.6v1h-4.6V91h4.6V92z"/>
	<path class="st0" d="M172.2,92h-1.2v-7.5l-2.4,5.1H168l-2.4-5.1V92h-1.1v-8.7h1.6l2.3,4.9l2.3-4.9h1.6V92z"/>
	<path class="st0" d="M182.3,84.3c0.4,0.4,0.6,0.9,0.8,1.4s0.3,1.2,0.3,1.9s-0.1,1.4-0.3,1.9s-0.5,1-0.8,1.4
		c-0.4,0.4-0.8,0.7-1.3,0.9s-1,0.3-1.7,0.3c-0.6,0-1.2-0.1-1.7-0.3s-0.9-0.5-1.3-0.9s-0.6-0.9-0.8-1.4s-0.3-1.2-0.3-1.9
		c0-0.7,0.1-1.3,0.3-1.9s0.5-1,0.8-1.5c0.3-0.4,0.8-0.7,1.3-0.9s1.1-0.3,1.7-0.3c0.6,0,1.2,0.1,1.7,0.3S181.9,83.9,182.3,84.3z
		 M182.2,87.6c0-1.1-0.3-2-0.8-2.6s-1.2-0.9-2.1-0.9c-0.9,0-1.6,0.3-2.1,0.9s-0.8,1.5-0.8,2.6c0,1.1,0.3,2,0.8,2.6s1.2,0.9,2.1,0.9
		s1.6-0.3,2.1-0.9S182.2,88.8,182.2,87.6z"/>
	<path class="st0" d="M193.1,92h-1.2v-4.3h-4.4V92h-1.2v-8.7h1.2v3.4h4.4v-3.4h1.2V92z"/>
	<path class="st0" d="M202.9,84.3h-3.1V92h-1.2v-7.7h-3.1v-1h7.4V84.3z"/>
	<path class="st0" d="M217.3,92h-1.2v-4.3h-4.4V92h-1.2v-8.7h1.2v3.4h4.4v-3.4h1.2V92z"/>
	<path class="st0" d="M227.4,84.3c0.4,0.4,0.6,0.9,0.8,1.4s0.3,1.2,0.3,1.9s-0.1,1.4-0.3,1.9s-0.5,1-0.8,1.4
		c-0.4,0.4-0.8,0.7-1.3,0.9s-1,0.3-1.7,0.3c-0.6,0-1.2-0.1-1.7-0.3s-0.9-0.5-1.3-0.9s-0.6-0.9-0.8-1.4s-0.3-1.2-0.3-1.9
		c0-0.7,0.1-1.3,0.3-1.9s0.5-1,0.8-1.5c0.3-0.4,0.8-0.7,1.3-0.9s1.1-0.3,1.7-0.3c0.6,0,1.2,0.1,1.7,0.3S227,83.9,227.4,84.3z
		 M227.3,87.6c0-1.1-0.3-2-0.8-2.6s-1.2-0.9-2.1-0.9c-0.9,0-1.6,0.3-2.1,0.9s-0.8,1.5-0.8,2.6c0,1.1,0.3,2,0.8,2.6s1.2,0.9,2.1,0.9
		s1.6-0.3,2.1-0.9S227.3,88.8,227.3,87.6z"/>
	<path class="st0" d="M237.7,83.3l-3.3,7.3c-0.1,0.3-0.3,0.5-0.5,0.7s-0.4,0.3-0.6,0.4c-0.2,0.1-0.4,0.2-0.6,0.2s-0.4,0-0.5,0
		c-0.2,0-0.3,0-0.6,0s-0.4,0-0.4,0v-1.1h0.1c0.1,0,0.2,0,0.3,0s0.3,0,0.5,0c0.1,0,0.2,0,0.3,0s0.3,0,0.4-0.1c0.1,0,0.2-0.1,0.4-0.2
		s0.2-0.3,0.3-0.4l0.2-0.5l-3.2-6.5h1.3l2.5,5.1l2.3-5.1H237.7z"/>
	<path class="st0" d="M246.3,84.3h-3.1V92h-1.2v-7.7h-3.1v-1h7.4V84.3z"/>
	<path class="st0" d="M255.3,89.3c0,0.4-0.1,0.8-0.2,1.1s-0.4,0.6-0.7,0.8c-0.3,0.3-0.7,0.4-1.1,0.6s-0.9,0.2-1.5,0.2h-3.2v-8.7h5.8
		v1h-4.7v2.4h2c0.6,0,1.1,0,1.5,0.1s0.7,0.2,1.1,0.5c0.3,0.2,0.5,0.5,0.7,0.9S255.3,88.9,255.3,89.3z M254.1,89.3
		c0-0.3,0-0.6-0.1-0.8s-0.3-0.4-0.5-0.5c-0.2-0.1-0.5-0.2-0.7-0.3s-0.7,0-1.2,0h-1.7V91h1.6c0.5,0,0.9,0,1.2-0.1s0.5-0.1,0.7-0.3
		c0.2-0.2,0.4-0.3,0.5-0.5S254.1,89.6,254.1,89.3z"/>
	<path class="st0" d="M264.3,83.3l-3.3,7.3c-0.1,0.3-0.3,0.5-0.5,0.7s-0.4,0.3-0.6,0.4c-0.2,0.1-0.4,0.2-0.6,0.2s-0.4,0-0.5,0
		c-0.2,0-0.3,0-0.6,0s-0.4,0-0.4,0v-1.1h0.1c0.1,0,0.2,0,0.3,0s0.3,0,0.5,0c0.1,0,0.2,0,0.3,0s0.3,0,0.4-0.1c0.1,0,0.3-0.1,0.4-0.2
		s0.2-0.3,0.3-0.4l0.2-0.5l-3.2-6.5h1.3l2.5,5.1l2.3-5.1H264.3z"/>
	<path class="st0" d="M273.7,92h-1.5l-3.5-4h-0.8v4h-1.2v-8.7h1.2v3.9c0.2,0,0.4,0,0.6-0.1s0.3-0.1,0.5-0.2c0.2-0.1,0.3-0.2,0.5-0.4
		s0.3-0.4,0.4-0.6c0.1-0.1,0.1-0.2,0.2-0.4s0.1-0.3,0.2-0.5c0.3-0.6,0.6-1.1,0.9-1.4s0.9-0.4,1.6-0.4h0.5v1h-0.5
		c-0.3,0-0.5,0-0.6,0.1s-0.3,0.1-0.4,0.2c-0.1,0.1-0.2,0.2-0.3,0.4s-0.2,0.4-0.3,0.6c-0.2,0.5-0.4,0.9-0.6,1.1s-0.5,0.5-0.8,0.6
		L273.7,92z"/>
	<path class="st0" d="M282.7,84.3c0.4,0.4,0.6,0.9,0.8,1.4s0.3,1.2,0.3,1.9s-0.1,1.4-0.3,1.9s-0.5,1-0.8,1.4
		c-0.4,0.4-0.8,0.7-1.3,0.9s-1,0.3-1.7,0.3c-0.6,0-1.2-0.1-1.7-0.3s-0.9-0.5-1.3-0.9s-0.6-0.9-0.8-1.4s-0.3-1.2-0.3-1.9
		c0-0.7,0.1-1.3,0.3-1.9s0.5-1,0.8-1.5c0.3-0.4,0.8-0.7,1.3-0.9s1.1-0.3,1.7-0.3c0.6,0,1.2,0.1,1.7,0.3S282.4,83.9,282.7,84.3z
		 M282.6,87.6c0-1.1-0.3-2-0.8-2.6s-1.2-0.9-2.1-0.9c-0.9,0-1.6,0.3-2.1,0.9s-0.8,1.5-0.8,2.6c0,1.1,0.3,2,0.8,2.6s1.2,0.9,2.1,0.9
		s1.6-0.3,2.1-0.9S282.6,88.8,282.6,87.6z"/>
	<path class="st0" d="M293.5,89.3c0,0.4-0.1,0.8-0.2,1.1s-0.4,0.6-0.7,0.8c-0.3,0.3-0.7,0.4-1.1,0.6S290.6,92,290,92h-3.1v-8.7h2.6
		c0.6,0,1.1,0,1.4,0.1s0.6,0.1,0.9,0.3c0.3,0.2,0.6,0.4,0.7,0.6s0.2,0.6,0.2,0.9c0,0.4-0.1,0.8-0.3,1.1s-0.5,0.5-0.8,0.7v0
		c0.6,0.1,1.1,0.4,1.4,0.8S293.5,88.7,293.5,89.3z M291.5,85.4c0-0.2,0-0.4-0.1-0.5s-0.2-0.3-0.3-0.4c-0.2-0.1-0.4-0.2-0.7-0.2
		s-0.6,0-1,0H288v2.5h1.5c0.4,0,0.7,0,0.9-0.1s0.4-0.1,0.6-0.2s0.3-0.3,0.4-0.5S291.5,85.6,291.5,85.4z M292.2,89.4
		c0-0.4-0.1-0.6-0.2-0.8s-0.3-0.4-0.6-0.5c-0.2-0.1-0.4-0.2-0.7-0.2s-0.6,0-1,0H288V91h1.5c0.5,0,0.9,0,1.2-0.1s0.6-0.1,0.8-0.3
		c0.2-0.2,0.4-0.3,0.5-0.5S292.2,89.7,292.2,89.4z"/>
</g>
<g>
	<line class="st1" x1="130" y1="87.5" x2="5" y2="87.5"/>
</g>
<g>
	<line class="st1" x1="440" y1="87.5" x2="313" y2="87.5"/>
</g>
<g>
	<line class="st1" x1="445" y1="2" x2="0" y2="2"/>
</g>
<g>
</g>
<g>
</g>
<g>
</g>
<g>
</g>
<g>
</g>
<g>
</g>
<g>
</g>
<g>
</g>
<g>
</g>
<g>
</g>
<g>
</g>
<g>
</g>
<g>
</g>
<g>
</g>
<g>
</g>
</svg>
