<?xml version="1.0" encoding="utf-8"?>
<!-- Generator: Adobe Illustrator 19.1.1, SVG Export Plug-In . SVG Version: 6.00 Build 0)  -->
<svg version="1.1" id="Слой_1" xmlns="http://www.w3.org/2000/svg" xmlns:xlink="http://www.w3.org/1999/xlink" x="0px" y="0px"
	 viewBox="-42 65 24 24" style="enable-background:new -42 65 24 24;" xml:space="preserve">
<style type="text/css">
	.st0{opacity:0.75;}
	.st1{fill:#FFFFFF;}
	.st2{display:none;}
</style>
<g id="Icons" class="st0">
	<path id="menu" class="st1" d="M-36,80h12c0.6,0,1,0.4,1,1v1c0,0.6-0.4,1-1,1h-12c-0.6,0-1-0.4-1-1v-1C-37,80.4-36.6,80-36,80z
		 M-37,76v1c0,0.6,0.4,1,1,1h12c0.6,0,1-0.4,1-1v-1c0-0.6-0.4-1-1-1h-12C-36.6,75-37,75.4-37,76z M-37,71v1c0,0.6,0.4,1,1,1h12
		c0.6,0,1-0.4,1-1v-1c0-0.6-0.4-1-1-1h-12C-36.6,70-37,70.4-37,71z"/>
</g>
<g id="Guides" class="st2">
</g>
</svg>
