<?xml version="1.0" encoding="utf-8"?>
<!-- Generator: Adobe Illustrator 19.1.1, SVG Export Plug-In . SVG Version: 6.00 Build 0)  -->
<svg version="1.1" id="Слой_1" xmlns="http://www.w3.org/2000/svg" xmlns:xlink="http://www.w3.org/1999/xlink" x="0px" y="0px"
	 viewBox="0 0 260 103" style="enable-background:new 0 0 260 103;" xml:space="preserve">
<style type="text/css">
	.st0{fill:#FFFFFF;}
	.st1{opacity:0.2;}
</style>
<g>
	<g>
		<g>
			<path class="st0" d="M46.3,82.1c1.1,0.5,1.4,1.4,0.6,2.1c-0.9,0.7-2.4,0.7-3.4,0.2c-0.9-0.6-1.1-1.5-0.4-2
				C43.8,81.8,45.2,81.7,46.3,82.1z"/>
		</g>
		<g>
			<path class="st0" d="M54.4,72.4c1.2,0.4,1.7,1.2,1.1,1.9c-0.5,0.7-1.9,1-3.1,0.6c-1.2-0.4-1.7-1.2-1.1-1.9
				C51.8,72.3,53.2,72,54.4,72.4z"/>
		</g>
		<g>
			<path class="st0" d="M63,62.9c1.1,0.5,1.4,1.4,0.7,2c-0.7,0.6-2.1,0.8-3.2,0.4c-1.1-0.4-1.5-1.3-0.8-2
				C60.5,62.6,61.9,62.5,63,62.9z"/>
		</g>
		<g>
			<path class="st0" d="M75.3,55.3c0.7,0.7,0.5,1.5-0.4,2c-0.9,0.4-2.4,0.3-3.3-0.3c-0.9-0.6-0.7-1.5,0.3-2
				C73,54.5,74.5,54.7,75.3,55.3z"/>
		</g>
		<g>
			<path class="st0" d="M91.9,51.8c0.1,0.4-0.1,0.8-0.4,1c-0.3,0.3-0.8,0.5-1.4,0.6c-1.2,0.1-2.4-0.4-2.8-1.2
				c-0.4-0.8,0.5-1.5,1.8-1.6c0.7-0.1,1.3,0,1.8,0.2C91.4,51.1,91.8,51.4,91.9,51.8z"/>
		</g>
		<g>
			<path class="st0" d="M109.9,52.6c-0.2,0.8-1.4,1.3-2.6,1.1c-1.2-0.1-2.1-0.9-2-1.7c0.1-0.8,1.3-1.3,2.6-1.2
				C109.2,51.1,110.1,51.8,109.9,52.6z"/>
		</g>
		<g>
			<path class="st0" d="M127.4,56.1c-0.4,0.7-1.8,1.1-3,0.8c-1.2-0.3-1.9-1.1-1.5-1.9c0.4-0.7,1.7-1.1,3-0.8
				C127.2,54.5,127.8,55.3,127.4,56.1z"/>
		</g>
		<g>
			<path class="st0" d="M144.5,60.5c-0.4,0.7-1.7,1.1-3,0.8c-1.3-0.3-1.9-1.2-1.5-1.9c0.4-0.7,1.8-1.1,3-0.8
				C144.2,58.9,144.9,59.8,144.5,60.5z"/>
		</g>
		<g>
			<path class="st0" d="M162.3,63.9c-0.2,0.8-1.5,1.2-2.8,1c-1.3-0.2-2.1-1-1.9-1.8c0.3-0.8,1.5-1.2,2.8-1
				C161.7,62.3,162.5,63.1,162.3,63.9z"/>
		</g>
		<g>
			<path class="st0" d="M180.6,66c-0.1,0.8-1.2,1.4-2.6,1.2c-1.3-0.1-2.3-0.9-2.2-1.7c0.1-0.8,1.3-1.3,2.6-1.2
				C179.7,64.5,180.7,65.2,180.6,66z"/>
		</g>
		<g>
			<path class="st0" d="M199.1,66.8c0.1,0.8-0.9,1.4-2.3,1.4c-1.4,0-2.5-0.7-2.5-1.5c0-0.8,1-1.4,2.3-1.4
				C197.9,65.4,199,66,199.1,66.8z"/>
		</g>
		<g>
			<path class="st0" d="M217.5,66.1c0.3,0.8-0.6,1.5-1.9,1.6c-1.3,0.1-2.6-0.5-2.8-1.3c-0.2-0.8,0.6-1.5,1.9-1.6
				C216,64.8,217.2,65.3,217.5,66.1z"/>
		</g>
		<g>
			<path class="st0" d="M235.3,63.6c0.6,0.8,0,1.6-1.3,1.9c-1.3,0.3-2.7-0.2-3.2-1c-0.5-0.8,0.1-1.6,1.3-1.8
				C233.3,62.4,234.7,62.8,235.3,63.6z"/>
		</g>
		<g>
			<path class="st0" d="M250.4,57.8c1.1,0.5,1.2,1.5,0.1,2.1c-0.5,0.3-1.2,0.4-1.8,0.4c-0.6,0-1.3-0.2-1.7-0.6
				c-0.4-0.3-0.6-0.7-0.6-1.1c0-0.4,0.2-0.7,0.6-0.9C247.9,57.2,249.3,57.3,250.4,57.8z"/>
		</g>
		<g>
			<path class="st0" d="M252.7,47.4c0.6-0.1,1.3-0.1,1.9,0.1c0.6,0.2,1.1,0.5,1.3,1c0.5,0.9-0.4,1.7-1.7,1.8c-1.3,0-2.5-0.4-2.9-1.1
				c-0.2-0.3-0.1-0.7,0.1-1C251.7,47.9,252.1,47.6,252.7,47.4z"/>
		</g>
		<g>
			<path class="st0" d="M240.8,38.5c0.8-0.6,2.4-0.6,3.4,0c1,0.6,1.1,1.5,0.2,2.1c-0.9,0.5-2.4,0.5-3.4,0
				C240.1,39.9,240,39,240.8,38.5z"/>
		</g>
		<g>
			<path class="st0" d="M225.4,31.7c0.6-0.7,2.1-0.9,3.3-0.4c1.2,0.4,1.6,1.4,0.9,2c-0.7,0.6-2.1,0.8-3.3,0.4
				C225.2,33.3,224.8,32.4,225.4,31.7z"/>
		</g>
		<g>
			<path class="st0" d="M209,26.1c0.6-0.7,2-0.9,3.2-0.6c1.2,0.4,1.7,1.3,1.1,1.9c-0.6,0.7-2,0.9-3.2,0.5
				C208.9,27.7,208.4,26.8,209,26.1z"/>
		</g>
		<g>
			<path class="st0" d="M192.3,20.9c0.5-0.7,2-1,3.1-0.6c1.2,0.4,1.7,1.2,1.2,1.9c-0.5,0.7-2,1-3.1,0.6
				C192.3,22.5,191.7,21.6,192.3,20.9z"/>
		</g>
		<g>
			<path class="st0" d="M175.9,15.5c0.6-0.7,2.1-0.9,3.2-0.5c1.1,0.4,1.6,1.3,1,1.9c-0.6,0.7-2,0.9-3.2,0.5
				C175.7,17.1,175.3,16.2,175.9,15.5z"/>
		</g>
		<g>
			<path class="st0" d="M161.5,8.6c1-0.4,2.4-0.3,3.2,0.2c0.8,0.5,0.9,1.4,0,1.9c-0.8,0.6-2.4,0.6-3.4-0.1
				C160.4,10,160.5,9,161.5,8.6z"/>
		</g>
	</g>
	<path class="st1" d="M64.4,72.4c-9.3-5.1-27.8-3.8-37.2,4.2c-8.6,7.3-3.5,25.9-3.5,25.9s33.9-11.4,40.1-15.6
		C70.3,82.4,71.4,76.2,64.4,72.4z M44.8,86.9c-4.2-0.9-5.5-3.6-2.3-6.1c3.3-2.5,9.4-3.4,13.2-1.9c3.4,1.3,3.5,3.8,0.7,5.9
		C53.6,86.7,48.6,87.7,44.8,86.9z"/>
	<path class="st0" d="M23.1,38.6c-11,0-20,9-20,20s20,44,20,44s20-33,20-44S34.1,38.6,23.1,38.6z M23.1,66.6c-4.4,0-8-3.6-8-8
		s3.6-8,8-8c4.4,0,8,3.6,8,8S27.5,66.6,23.1,66.6z"/>
</g>
<g>
</g>
<g>
</g>
<g>
</g>
<g>
</g>
<g>
</g>
<g>
</g>
<g>
</g>
<g>
</g>
<g>
</g>
<g>
</g>
<g>
</g>
<g>
</g>
<g>
</g>
<g>
</g>
<g>
</g>
</svg>
