<?xml version="1.0" encoding="utf-8"?>
<!-- Generator: Adobe Illustrator 19.1.1, SVG Export Plug-In . SVG Version: 6.00 Build 0)  -->
<svg version="1.1" id="Слой_1" xmlns="http://www.w3.org/2000/svg" xmlns:xlink="http://www.w3.org/1999/xlink" x="0px" y="0px"
	 viewBox="115 -91 345.3 323.5" style="enable-background:new 115 -91 345.3 323.5;" xml:space="preserve">
<style type="text/css">
	.st0{fill:none;stroke:#FFFFFF;stroke-width:4;stroke-miterlimit:10;}
	.st1{fill:#FFFFFF;}
	.st2{fill:none;stroke:#FFFFFF;stroke-width:2;stroke-miterlimit:10;}
	.st3{fill:none;stroke:#FFFFFF;stroke-width:3;stroke-linecap:round;stroke-miterlimit:10;}
</style>
<g>
	<g id="VkLogo">
		<path id="path2438" class="st0" d="M233.7-7.3h108c13.3,0,24.1,10.8,24.1,24.1v108c0,13.3-10.8,24.1-24.1,24.1h-108
			c-13.3,0-24.1-10.8-24.1-24.1v-108C209.6,3.4,220.4-7.3,233.7-7.3"/>
		<path id="path2442" class="st1" d="M286.4,102h6.4c0,0,1.9-0.2,2.9-1.3c0.9-1,0.9-2.8,0.9-2.8s-0.1-8.6,3.9-9.8
			c3.9-1.2,9,8.3,14.3,11.9c4,2.8,7.1,2.2,7.1,2.2l14.3-0.2c0,0,7.5-0.5,3.9-6.3c-0.3-0.5-2.1-4.3-10.6-12.3c-8.9-8.3-7.7-7,3-21.3
			c6.6-8.7,9.2-14.1,8.4-16.4c-0.8-2.2-5.6-1.6-5.6-1.6l-16.1,0.1c0,0-1.2-0.2-2.1,0.4c-0.9,0.5-1.4,1.7-1.4,1.7s-2.5,6.8-5.9,12.5
			c-7.2,12.1-10,12.8-11.2,12c-2.7-1.8-2-7.1-2-10.8c0-11.8,1.8-16.7-3.5-18c-1.7-0.4-3-0.7-7.5-0.7c-5.7-0.1-10.6,0-13.3,1.4
			c-1.8,0.9-3.2,2.9-2.4,3c1.1,0.1,3.5,0.6,4.7,2.4c1.6,2.2,1.6,7.3,1.6,7.3s0.9,13.9-2.2,15.6c-2.2,1.2-5.1-1.2-11.5-12.2
			c-3.3-5.6-5.7-11.9-5.7-11.9s-0.5-1.2-1.3-1.8c-1-0.8-2.5-1-2.5-1l-15.3,0.1c0,0-2.3,0.1-3.1,1.1c-0.7,0.9-0.1,2.7-0.1,2.7
			s12,28,25.5,42.1C272.3,102.7,286.4,102,286.4,102"/>
	</g>
	<g>
		<path class="st2" d="M449.4-33.3h-10l-27,15.4v-15.4h-17.7c-5.1,0-9.2-4.2-9.2-9.2v-35.4c0-5.1,4.2-9.2,9.2-9.2h54.7
			c5.1,0,9.2,4.2,9.2,9.2v35.4C458.6-37.4,454.5-33.3,449.4-33.3z"/>
		<g>
			<circle class="st1" cx="405.2" cy="-60.6" r="3.9"/>
			<circle class="st1" cx="422.2" cy="-60.6" r="3.9"/>
			<circle class="st1" cx="438.3" cy="-60.6" r="3.9"/>
		</g>
	</g>
	<g>
		<path class="st2" d="M162.8,29h-7.3l2.6,12.2L136,29h-12.8c-3.7,0-6.7-3-6.7-6.7V-3.4c0-3.7,3-6.7,6.7-6.7h39.6
			c3.7,0,6.7,3,6.7,6.7v25.7C169.5,26,166.5,29,162.8,29z"/>
		<g>
			<circle class="st1" cx="130.7" cy="9.1" r="2.8"/>
			<circle class="st1" cx="143" cy="9.1" r="2.8"/>
			<circle class="st1" cx="154.7" cy="9.1" r="2.8"/>
		</g>
	</g>
	<g>
		<g>
			<path class="st2" d="M446.4,231.2h-11.1h-52.7c-6.6,0-11.9-5.4-11.9-11.9v-40.9c0-6.6,5.4-11.9,11.9-11.9H394l-11.7-24l52.6,24
				h11.5c6.6,0,11.9,5.4,11.9,11.9v40.9C458.3,225.8,452.9,231.2,446.4,231.2z"/>
		</g>
		<g>
			<line class="st3" x1="401.9" y1="196.8" x2="415.1" y2="196.8"/>
			<line class="st3" x1="401.9" y1="202.8" x2="415.1" y2="202.8"/>
			<path class="st3" d="M424.2,189.7L424.2,189.7c4.6,6,4.6,14.4,0,20.4l0,0"/>
		</g>
	</g>
</g>
</svg>
